<svg xmlns="http://www.w3.org/2000/svg" width="112.758" height="27.292" viewBox="0 0 112.758 27.292">
  <g id="초록마을_bi" data-name="초록마을 bi" transform="translate(-417.045 -359.092)">
    <g id="그룹_4880" data-name="그룹 4880" transform="translate(417.045 361.333)">
      <path id="패스_8583" data-name="패스 8583" d="M630.826,378.177c3.332,0,6.03-1.938,6.03-4.328s-2.7-4.328-6.03-4.328-6.031,1.938-6.031,4.328S627.5,378.177,630.826,378.177Zm0-7.344c1.3,0,2.354,1.351,2.354,3.016s-1.054,3.015-2.354,3.015-2.353-1.35-2.353-3.015S629.526,370.833,630.826,370.833Z" transform="translate(-558.666 -369.52)" fill="#1e311f"/>
      <path id="패스_8584" data-name="패스 8584" d="M557.28,377.38H547.12v9.675c0,4.268,3.179,4.244,3.179,4.244h6.981c.23,0,.469-.139.469-.547V377.927C557.749,377.519,557.51,377.38,557.28,377.38Zm-3.042,12.458H552.8a2.414,2.414,0,0,1-2.162-2.653v-8.316h3.157a.451.451,0,0,1,.446.488Z" transform="translate(-505.716 -374.878)" fill="#1e311f"/>
      <path id="패스_8585" data-name="패스 8585" d="M500.35,417.626H487.506v1.483h9.164c.509,0,.477.413.477.413v3.518c0,.719-.117,1.831-.117,1.831h2.928c.938,0,.859-.987.859-.987s0-4.279,0-5.71C500.82,417.766,500.581,417.626,500.35,417.626Z" transform="translate(-465.078 -402.313)" fill="#1e311f"/>
      <path id="패스_8586" data-name="패스 8586" d="M633.406,401.237h-18.08v1.473H633.2A3.141,3.141,0,0,0,633.406,401.237Z" transform="translate(-552.211 -391.141)" fill="#1e311f"/>
      <path id="패스_8587" data-name="패스 8587" d="M591.33,379.685V372.07c0-.382,0-.594-.361-.658a26.274,26.274,0,0,0-3.3-.129l0,16.427-.016,3.734c0,.719-.118,1.83-.118,1.83h2.929c.938,0,.858-.987.858-.987V381.322h3.115a3.84,3.84,0,0,0,.2-1.637Z" transform="translate(-533.27 -370.72)" fill="#1e311f"/>
      <path id="패스_8588" data-name="패스 8588" d="M490.862,382.767v-1.924h4.1a3.2,3.2,0,0,0,.2-1.475h-6.986c-1.7,0-1.653-1.348-1.653-1.348v-1.247h8.21c.231,0,.47-.14.47-.549v-3.343a1.527,1.527,0,0,0-1.677-1.636H482.84v1.476h7.892a.774.774,0,0,1,.792.84v1.745h-8.661v2.661a2.725,2.725,0,0,0,2.736,2.877h1.587v1.924h-7.218v1.472h17.885a3.163,3.163,0,0,0,.206-1.472Z" transform="translate(-459.939 -370.696)" fill="#1e311f"/>
      <path id="패스_8589" data-name="패스 8589" d="M635.107,411.266H624.416v1.475h7.892a.775.775,0,0,1,.792.84V415h-8.661v2.661a2.725,2.725,0,0,0,2.735,2.877h9.365a3.175,3.175,0,0,0,.2-1.475h-6.984c-1.7,0-1.653-1.348-1.653-1.348v-1.246h8.211c.231,0,.469-.141.469-.55V412.9A1.526,1.526,0,0,0,635.107,411.266Z" transform="translate(-558.408 -397.978)" fill="#1e311f"/>
      <path id="패스_8590" data-name="패스 8590" d="M427.925,419.43v-4.173c0-.382,0-.594-.362-.658a26.642,26.642,0,0,0-3.3-.129v4.961h-7.22V420.9h17.9a3.168,3.168,0,0,0,.194-1.472Z" transform="translate(-417.045 -400.161)" fill="#1e311f"/>
      <path id="패스_8591" data-name="패스 8591" d="M427.728,376.118c0,4.577-2.5,6.859-5.636,7.481v1.146a8.6,8.6,0,0,0,7.45-4.4,8.594,8.594,0,0,0,7.287,4.4,3.2,3.2,0,0,0,.15-1.147c-3.132-.627-5.623-2.9-5.623-7.459v-.451h5.408a3.192,3.192,0,0,0,.2-1.472h-5.612v-2.447c0-.408-.239-.548-.469-.548h-3.159v2.995h-5.637v1.472h5.637Z" transform="translate(-420.485 -370.678)" fill="#1e311f"/>
    </g>
    <g id="그룹_4883" data-name="그룹 4883" transform="translate(502.512 359.092)">
      <path id="패스_8592" data-name="패스 8592" d="M717.173,372.535a13.646,13.646,0,1,1-13.646-13.645A13.646,13.646,0,0,1,717.173,372.535Z" transform="translate(-689.881 -358.89)" fill="#1e311f"/>
      <g id="그룹_4881" data-name="그룹 4881" transform="translate(1.229 1.251)">
        <path id="패스_8593" data-name="패스 8593" d="M703,424.031a.274.274,0,0,0-.19-.088.3.3,0,0,0-.1.019.064.064,0,0,0-.043.045v.008a.064.064,0,0,0,.017.063,5.073,5.073,0,0,1,.346.4.143.143,0,0,0,.116.043.583.583,0,0,0,.117-.016.064.064,0,0,0,.043-.036l.005-.01a.069.069,0,0,0-.006-.062A2.808,2.808,0,0,0,703,424.031Z" transform="translate(-700.105 -405.923)" fill="#cac80e"/>
        <path id="패스_8594" data-name="패스 8594" d="M696.634,411.153a.245.245,0,0,0-.161-.062.216.216,0,0,0-.032,0l-.036.02-.007.009a.067.067,0,0,0,0,.086,1.063,1.063,0,0,1,.184.371.983.983,0,0,1,.032.239.667.667,0,0,1-.565.664.922.922,0,0,1-.216.027.666.666,0,0,1-.66-.538.837.837,0,0,1-.027-.217.7.7,0,0,1,.023-.187l0-.019a.145.145,0,0,0-.154-.129l-.026,0a.065.065,0,0,0-.043.026.533.533,0,0,0-.062.292,1.19,1.19,0,0,0,.035.28.979.979,0,0,0,.948.785h0a1.068,1.068,0,0,0,.265-.033.892.892,0,0,0,.749-.888,1.3,1.3,0,0,0-.042-.318A.885.885,0,0,0,696.634,411.153Z" transform="translate(-694.629 -396.878)" fill="#cac80e"/>
        <path id="패스_8595" data-name="패스 8595" d="M695.418,405.263c.2-.008.35-.012.459-.012h.053a.064.064,0,0,0,.067-.07.491.491,0,0,0-.017-.116.13.13,0,0,0-.036-.075.122.122,0,0,0-.089-.03h-.012l-.722.027-.02-.529c-.009-.221-.014-.334-.018-.4l.766-.028a.112.112,0,0,0,.069-.024.089.089,0,0,0,.032-.07v0a.9.9,0,0,0-.031-.153.067.067,0,0,0-.069-.046c-.057.005-.146.014-.342.022l-.91.034c-.2.006-.344.011-.448.011h-.056a.061.061,0,0,0-.047.02.063.063,0,0,0-.019.048.576.576,0,0,0,.018.13.11.11,0,0,0,.038.068.122.122,0,0,0,.084.025h.01l.659-.026.034.932-.593.023a.477.477,0,0,0-.136.015.1.1,0,0,0-.067.092v.009a.649.649,0,0,0,.031.136.064.064,0,0,0,.062.045h.009c.047-.007.164-.014.351-.02Z" transform="translate(-694.029 -391.701)" fill="#cac80e"/>
        <path id="패스_8596" data-name="패스 8596" d="M695.477,396.426a1.043,1.043,0,0,0,.182.015h.011a.917.917,0,0,0,.929-.78,1.07,1.07,0,0,0,.02-.2.941.941,0,0,0-.83-.912,1.029,1.029,0,0,0-.2-.02.925.925,0,0,0-.93.776.959.959,0,0,0-.02.2A.949.949,0,0,0,695.477,396.426Zm-.652-1.076.064.012v0a.655.655,0,0,1,.677-.532.916.916,0,0,1,.171.017c.457.089.638.334.641.627a.729.729,0,0,1-.015.135.673.673,0,0,1-.681.534.95.95,0,0,1-.168-.015c-.419-.082-.637-.331-.638-.636a.613.613,0,0,1,.011-.127Zm-.105-.036Z" transform="translate(-694.457 -385.22)" fill="#cac80e"/>
        <path id="패스_8597" data-name="패스 8597" d="M698.438,389.086a.121.121,0,0,0-.087-.109l-.593-.247.014-.033c.079-.173.09-.253.372-.3.164-.03.217-.043.425-.081.138-.026.234-.068.274-.159a.332.332,0,0,0,.028-.117.24.24,0,0,0,0-.027.064.064,0,0,0-.029-.043l-.011-.008a.062.062,0,0,0-.069,0,2.383,2.383,0,0,1-.52.132,1.653,1.653,0,0,0-.362.093.562.562,0,0,0-.337-.478.639.639,0,0,0-.248-.056.586.586,0,0,0-.512.433,3.553,3.553,0,0,0-.133.446.065.065,0,0,0,.043.074c.088.032.148.056.276.11l.869.363c.215.089.367.156.467.2a.07.07,0,0,0,.028.006.049.049,0,0,0,.023,0,.064.064,0,0,0,.038-.036c.006-.015.019-.049.041-.123A.168.168,0,0,0,698.438,389.086Zm-1.15-1.139a.377.377,0,0,1,.148.034.316.316,0,0,1,.216.306c0,.011,0,.023,0,.034a2.51,2.51,0,0,1-.11.318l-.606-.252c.013-.039.055-.168.073-.212A.316.316,0,0,1,697.288,387.947Z" transform="translate(-695.872 -380.38)" fill="#cac80e"/>
        <path id="패스_8598" data-name="패스 8598" d="M761.844,378.015a.12.12,0,0,0,.137-.029l.491-.416a.333.333,0,0,1,.023.029.385.385,0,0,1,.1.47c-.048.16-.06.212-.121.416a.328.328,0,0,0,.017.316.338.338,0,0,0,.09.078l.025.01a.064.064,0,0,0,.05-.005l.013-.007a.063.063,0,0,0,.034-.06,2.237,2.237,0,0,1,.118-.523,1.728,1.728,0,0,0,.082-.364.566.566,0,0,0,.579-.083.635.635,0,0,0,.163-.2.586.586,0,0,0-.153-.652,3.4,3.4,0,0,0-.335-.322.066.066,0,0,0-.087,0c-.068.064-.118.106-.222.2l-.719.608c-.177.151-.3.256-.393.324a.062.062,0,0,0-.019.021.138.138,0,0,0-.007.024.069.069,0,0,0,.015.049c.011.012.035.04.091.092A.126.126,0,0,0,761.844,378.015Zm1.538-.506a.38.38,0,0,1-.1.116.317.317,0,0,1-.372.054c-.011-.005-.019-.011-.03-.017a2.575,2.575,0,0,1-.233-.244l.5-.424c.029.028.124.123.157.162A.314.314,0,0,1,763.381,377.508Z" transform="translate(-741.659 -372.649)" fill="#cac80e"/>
        <path id="패스_8599" data-name="패스 8599" d="M702.145,380.137a1,1,0,0,0-.567-.182.925.925,0,0,0-.771.423h0a.937.937,0,0,0-.174.535,1.008,1.008,0,0,0,.478.822,1.037,1.037,0,0,0,.57.176h0a.9.9,0,0,0,.758-.427.943.943,0,0,0,.176-.534A1.007,1.007,0,0,0,702.145,380.137Zm-.437,1.484a.781.781,0,0,1-.443-.146.756.756,0,0,1-.381-.609.6.6,0,0,1,.11-.339v0a.631.631,0,0,1,.532-.284.8.8,0,0,1,.453.149.744.744,0,0,1,.387.6.632.632,0,0,1-.117.352A.662.662,0,0,1,701.708,381.621Zm-.767-1.132Zm-.081-.076Z" transform="translate(-698.676 -374.965)" fill="#cac80e"/>
        <path id="패스_8600" data-name="패스 8600" d="M708.575,374.272a.192.192,0,0,0,.006-.048.239.239,0,0,0-.051-.149l-.035-.023-.01,0a.068.068,0,0,0-.076.042,1.057,1.057,0,0,1-.233.343.763.763,0,0,1-.521.235.821.821,0,0,1-.748-.761.708.708,0,0,1,.234-.511.845.845,0,0,1,.35-.2l.019-.009a.133.133,0,0,0,.056-.113.182.182,0,0,0-.036-.1.062.062,0,0,0-.04-.024.089.089,0,0,0-.025,0,.863.863,0,0,0-.492.259,1.028,1.028,0,0,0-.342.748,1.066,1.066,0,0,0,.985,1.019,1.022,1.022,0,0,0,.7-.315A.917.917,0,0,0,708.575,374.272Z" transform="translate(-702.898 -370.031)" fill="#cac80e"/>
        <path id="패스_8601" data-name="패스 8601" d="M716.706,366.9c.344.34.774.763.96.966a.064.064,0,0,0,.073.015.23.23,0,0,0,.084-.06.135.135,0,0,0,.034-.094.1.1,0,0,0,0-.025c-.017-.438-.034-.957-.045-1.314l.428.632c.128.185.192.277.294.414a.124.124,0,0,0,.094.056.115.115,0,0,0,.049-.011.437.437,0,0,0,.117-.086.067.067,0,0,0,0-.087c-.084-.108-.212-.279-.385-.523l-.618-.88a.135.135,0,0,0-.106-.073.1.1,0,0,0-.039.009.311.311,0,0,0-.11.087.064.064,0,0,0,0,.074l.022.035c.005.289.017.82.033,1.352l-.722-.7c-.18-.172-.267-.256-.322-.307a.067.067,0,0,0-.071-.012.587.587,0,0,0-.129.09.07.07,0,0,0-.023.046.068.068,0,0,0,.018.047l.044.048c.134.623.3,1.371.361,1.636a.067.067,0,0,0,.06.051l.026,0h0a.259.259,0,0,0,.1-.023.109.109,0,0,0,.063-.1c0-.007,0-.014,0-.023C716.945,367.928,716.814,367.346,716.706,366.9Z" transform="translate(-709.719 -365.023)" fill="#cac80e"/>
        <path id="패스_8602" data-name="패스 8602" d="M726.066,365.682l.045.039a.062.062,0,0,0,.045.015h.01a3.2,3.2,0,0,0,.5-.077,2.31,2.31,0,0,0,.3-.078.228.228,0,0,0,.128-.188.068.068,0,0,0-.03-.064l-.007,0a.062.062,0,0,0-.058-.007,3.631,3.631,0,0,1-.363.091c-.117.026-.264.052-.341.06l-.126-.587.455-.1a.194.194,0,0,0,.186-.208v-.006a.064.064,0,0,0-.025-.051.067.067,0,0,0-.055-.013l-.612.132-.115-.534.4-.085a.442.442,0,0,0,.207-.073.224.224,0,0,0,.052-.141c0-.008,0-.018,0-.029a.067.067,0,0,0-.079-.051l-.726.156-.012,0a.768.768,0,0,0-.128.071.065.065,0,0,0-.025.07c.025.09.051.213.078.343l.274,1.271Z" transform="translate(-716.31 -363.546)" fill="#cac80e"/>
        <path id="패스_8603" data-name="패스 8603" d="M733.878,364.871c-.045-.076-.121-.249-.242-.492-.129-.262-.42-.9-.552-1.186a.13.13,0,0,0-.123-.079h0a.314.314,0,0,0-.124.033.066.066,0,0,0-.032.087l.032.069c-.1.242-.542,1.271-.7,1.6l-.006.019,0,.017a.068.068,0,0,0,.03.064.256.256,0,0,0,.133.039h0a.117.117,0,0,0,.106-.066c.053-.108.136-.3.248-.566l.684-.015c.118.249.169.359.241.5a.153.153,0,0,0,.133.113h0a.442.442,0,0,0,.145-.035.065.065,0,0,0,.042-.062V364.9Zm-.661-.72-.472.011c.081-.2.152-.368.228-.55C733.028,363.732,733.111,363.913,733.216,364.151Z" transform="translate(-720.838 -363.114)" fill="#cac80e"/>
        <path id="패스_8604" data-name="패스 8604" d="M741.9,363.665a.251.251,0,0,0-.042-.007l-.017,0-.033,0h-.01a.133.133,0,0,0-.128.124l-.145.767c-.021.1-.049.252-.083.468-.054-.114-.121-.242-.191-.378-.269-.515-.5-1-.583-1.138a.138.138,0,0,0-.095-.088.348.348,0,0,0-.073-.006.578.578,0,0,0-.075.005.065.065,0,0,0-.052.052l0,.01.007.043.057.109-.207,1.083c-.043.232-.076.391-.1.5a.06.06,0,0,0,.009.052.065.065,0,0,0,.044.028.486.486,0,0,0,.069.006h.027a.13.13,0,0,0,.086-.033.192.192,0,0,0,.046-.1l.133-.7c.021-.112.042-.231.079-.462.047.1.09.182.117.235.2.383.476.941.642,1.275a.069.069,0,0,0,.036.032.119.119,0,0,0,.033.013h.023a.237.237,0,0,0,.116-.031.067.067,0,0,0,.028-.042l.233-1.229c.043-.23.076-.389.1-.5a.062.062,0,0,0-.008-.049A.066.066,0,0,0,741.9,363.665Z" transform="translate(-726.47 -363.32)" fill="#cac80e"/>
        <path id="패스_8605" data-name="패스 8605" d="M748.805,366.088l0-.045a.59.59,0,0,0-.3-.252l-.025.062h0l.024-.062h0a.73.73,0,0,0-.262-.053.494.494,0,0,0-.464.314.52.52,0,0,0-.044.2.75.75,0,0,0,.212.466c.149.177.224.288.221.389a.311.311,0,0,1-.022.111.235.235,0,0,1-.233.157.419.419,0,0,1-.158-.032.6.6,0,0,1-.283-.236.065.065,0,0,0-.049-.033.061.061,0,0,0-.054.02.323.323,0,0,0-.066.09.133.133,0,0,0-.011.052.153.153,0,0,0,.022.076.693.693,0,0,0,.343.264.754.754,0,0,0,.271.054h0a.514.514,0,0,0,.495-.332.549.549,0,0,0,.043-.207.83.83,0,0,0-.255-.508c-.128-.153-.187-.247-.186-.336a.294.294,0,0,1,.023-.108.216.216,0,0,1,.215-.15.33.33,0,0,1,.129.026.518.518,0,0,1,.211.155l.031.021a.111.111,0,0,0,.032,0A.158.158,0,0,0,748.805,366.088Z" transform="translate(-731.51 -364.959)" fill="#cac80e"/>
        <path id="패스_8606" data-name="패스 8606" d="M756.786,372.938a.931.931,0,0,0,.578.212,1.026,1.026,0,0,0,.787-.419,1.007,1.007,0,0,0,.222-.616.934.934,0,0,0-.372-.738h0a.936.936,0,0,0-.579-.211,1.071,1.071,0,0,0-1.01,1.044A.9.9,0,0,0,756.786,372.938Zm1.054-1.38a.628.628,0,0,1,.249.5.8.8,0,0,1-.178.487.771.771,0,0,1-.588.347.6.6,0,0,1-.378-.141.656.656,0,0,1-.247-.515.77.77,0,0,1,.175-.476.778.778,0,0,1,.6-.34.591.591,0,0,1,.37.134Z" transform="translate(-737.929 -368.781)" fill="#cac80e"/>
        <path id="패스_8607" data-name="패스 8607" d="M766.951,385.038a1.033,1.033,0,0,0,.174.115.072.072,0,0,0,.03.007.088.088,0,0,0,.032-.008l.571-.32c.042-.026.081-.043.087-.109a.08.08,0,0,0-.012-.044.473.473,0,0,0-.125-.121.068.068,0,0,0-.077.006,2.544,2.544,0,0,1-.318.19h0l-.2.114a1.053,1.053,0,0,1-.193-.244.916.916,0,0,1-.123-.438.672.672,0,0,1,.4-.6.772.772,0,0,1,.38-.105.689.689,0,0,1,.608.38.9.9,0,0,1,.126.433v.018a.128.128,0,0,0,.133.116.149.149,0,0,0,.084-.023.06.06,0,0,0,.029-.039.42.42,0,0,0,.01-.1,1.062,1.062,0,0,0-.151-.51,1.024,1.024,0,0,0-.887-.558,1.008,1.008,0,0,0-.5.135.887.887,0,0,0-.513.793,1.238,1.238,0,0,0,.171.6A1.4,1.4,0,0,0,766.951,385.038Z" transform="translate(-745.043 -377.245)" fill="#cac80e"/>
        <path id="패스_8608" data-name="패스 8608" d="M769.982,392.713c-.208.179-.3.259-.421.366a.172.172,0,0,0-.078.127.214.214,0,0,0,.006.037.487.487,0,0,0,.073.128.066.066,0,0,0,.053.026l.019,0,.013,0,.028-.017c.061-.065.206-.184.408-.366.219-.194.753-.646.995-.851a.132.132,0,0,0,.049-.1.171.171,0,0,0-.006-.043.3.3,0,0,0-.067-.111.066.066,0,0,0-.092-.007l-.057.05c-.26-.032-1.37-.181-1.733-.245h-.019l-.018,0a.066.066,0,0,0-.053.043.232.232,0,0,0-.011.075.228.228,0,0,0,.009.07.116.116,0,0,0,.092.082c.119.022.325.05.613.086Zm.208-.171-.136-.451.59.071C770.543,392.248,770.391,392.375,770.19,392.542Z" transform="translate(-746.839 -383.232)" fill="#cac80e"/>
        <path id="패스_8609" data-name="패스 8609" d="M773.019,400.151a.124.124,0,0,0-.129-.1l-.025,0-.778.064c-.106.008-.256.021-.474.045.1-.083.2-.182.315-.285.425-.4.833-.746.941-.864a.141.141,0,0,0,.06-.109h0a.522.522,0,0,0-.038-.147.064.064,0,0,0-.064-.037h-.012l-.038.017-.091.084-1.1.09c-.236.019-.4.029-.509.033a.065.065,0,0,0-.047.021.068.068,0,0,0-.016.049.346.346,0,0,0,.021.094.127.127,0,0,0,.129.094l.035,0,.713-.059c.113-.009.235-.021.467-.047l-.2.175c-.315.294-.781.709-1.059.957h0a.058.058,0,0,0-.019.033.055.055,0,0,0,0,.012h0a.143.143,0,0,0,0,.027.073.073,0,0,0,0,.016.218.218,0,0,0,.064.117.064.064,0,0,0,.044.016h0l1.247-.1c.232-.018.4-.03.515-.034a.062.062,0,0,0,.046-.022.066.066,0,0,0,.017-.049A.409.409,0,0,0,773.019,400.151Z" transform="translate(-748.208 -388.173)" fill="#cac80e"/>
        <path id="패스_8610" data-name="패스 8610" d="M773.055,407.362h-.022c-.053,0-.163-.006-.328-.018l-1.354-.1h-.018a.114.114,0,0,0-.074.025.094.094,0,0,0-.03.068c0,.007,0,.016,0,.024a.49.49,0,0,0,.016.128.065.065,0,0,0,.061.048c.057,0,.147,0,.34.017l1.274.1c.042,0,.071.005.1.005a.14.14,0,0,0,.074-.016.09.09,0,0,0,.043-.072c0-.008,0-.014,0-.022a.68.68,0,0,0-.015-.128A.063.063,0,0,0,773.055,407.362Z" transform="translate(-748.357 -394.167)" fill="#cac80e"/>
        <path id="패스_8611" data-name="패스 8611" d="M771.262,411.055a1.253,1.253,0,0,0-.281-.033.9.9,0,0,0-.9.789,1.167,1.167,0,0,0-.031.269.541.541,0,0,0,.027.194.239.239,0,0,0,.145.139h.041l.01,0a.066.066,0,0,0,.041-.077.879.879,0,0,1-.019-.194.984.984,0,0,1,.024-.22.669.669,0,0,1,.67-.591.971.971,0,0,1,.213.027.673.673,0,0,1,.574.671.862.862,0,0,1-.2.544.108.108,0,0,0-.02.063.16.16,0,0,0,.112.146.063.063,0,0,0,.022,0,.073.073,0,0,0,.031-.007.817.817,0,0,0,.283-.5,1.239,1.239,0,0,0,.03-.262A.96.96,0,0,0,771.262,411.055Z" transform="translate(-747.531 -396.829)" fill="#cac80e"/>
        <path id="패스_8612" data-name="패스 8612" d="M768.035,423.074h-.012a.064.064,0,0,0-.053.033,2.929,2.929,0,0,0-.185.439.374.374,0,0,0-.017.1.253.253,0,0,0,.087.186.065.065,0,0,0,.047.019l.015,0h.008a.067.067,0,0,0,.046-.046c.031-.1.131-.339.2-.492a.122.122,0,0,0,.007-.041.3.3,0,0,0-.091-.177A.065.065,0,0,0,768.035,423.074Z" transform="translate(-745.924 -405.311)" fill="#cac80e"/>
        <path id="패스_8613" data-name="패스 8613" d="M711.777,433.465a.112.112,0,0,0,.057.015.144.144,0,0,0,.118-.064l.008-.04a.513.513,0,0,0-.2-.291l-.033.047.033-.048,0,0a.556.556,0,0,0-.339-.125.445.445,0,0,0-.353.177.452.452,0,0,0-.1.283.866.866,0,0,0,.086.341.912.912,0,0,1,.108.333.254.254,0,0,1-.054.15.217.217,0,0,1-.173.092.338.338,0,0,1-.2-.076.543.543,0,0,1-.19-.274.059.059,0,0,0-.034-.04.062.062,0,0,0-.054,0,.313.313,0,0,0-.077.063.115.115,0,0,0-.026.075.128.128,0,0,0,.006.04.672.672,0,0,0,.6.443h0a.449.449,0,0,0,.368-.189.439.439,0,0,0,.1-.275,1,1,0,0,0-.114-.4.756.756,0,0,1-.088-.282.226.226,0,0,1,.053-.144.189.189,0,0,1,.161-.089.3.3,0,0,1,.169.062.48.48,0,0,1,.147.186Z" transform="translate(-705.516 -412.266)" fill="#cac80e"/>
        <path id="패스_8614" data-name="패스 8614" d="M716.065,435.528a.6.6,0,0,0-.126-.047.06.06,0,0,0-.068.034c-.015.036-.066.128-.15.275l.049.03-.049-.029-.615,1.061a.122.122,0,0,0-.019.063.086.086,0,0,0,.043.073.529.529,0,0,0,.132.047h.011a.058.058,0,0,0,.052-.032c.023-.046.059-.118.147-.269l.578-1a.331.331,0,0,0,.059-.136A.081.081,0,0,0,716.065,435.528Z" transform="translate(-708.849 -414.041)" fill="#cac80e"/>
        <path id="패스_8615" data-name="패스 8615" d="M720.464,437.464a.365.365,0,0,0-.084-.022.13.13,0,0,0-.031,0,.12.12,0,0,0-.107.091l-.26.654c-.037.091-.087.217-.156.4-.028-.111-.065-.237-.1-.369-.149-.5-.267-.973-.319-1.109a.123.123,0,0,0-.069-.094.443.443,0,0,0-.13-.025.057.057,0,0,0-.055.036l0,.01,0,.038.031.108-.369.924c-.079.2-.137.333-.178.424a.055.055,0,0,0,0,.046.062.062,0,0,0,.033.032.4.4,0,0,0,.085.021.228.228,0,0,0,.028,0,.125.125,0,0,0,.111-.1l.24-.6c.038-.1.078-.2.151-.4.024.094.048.177.062.231.111.373.259.916.35,1.24a.061.061,0,0,0,.024.034h0a.106.106,0,0,0,.028.017.153.153,0,0,0,.057.008.2.2,0,0,0,.07-.009.069.069,0,0,0,.032-.033l.418-1.048c.078-.2.135-.331.178-.429a.053.053,0,0,0,0-.047A.056.056,0,0,0,720.464,437.464Z" transform="translate(-711.337 -415.103)" fill="#cac80e"/>
        <path id="패스_8616" data-name="패스 8616" d="M727.253,439.642a1.047,1.047,0,0,0-.2-.02.868.868,0,0,0-.875.725,1.165,1.165,0,0,0-.022.222.813.813,0,0,0,.739.818,1.069,1.069,0,0,0,.212.021.548.548,0,0,0,.2-.03.218.218,0,0,0,.122-.134l0-.038,0-.009a.059.059,0,0,0-.07-.033.963.963,0,0,1-.21.022.856.856,0,0,1-.164-.015.606.606,0,0,1-.553-.613.875.875,0,0,1,.017-.168.606.606,0,0,1,.611-.537.777.777,0,0,1,.143.014.788.788,0,0,1,.332.15l.017.01a.1.1,0,0,0,.036.008.143.143,0,0,0,.132-.106.062.062,0,0,0-.005-.047A.727.727,0,0,0,727.253,439.642Z" transform="translate(-716.636 -416.957)" fill="#cac80e"/>
        <path id="패스_8617" data-name="패스 8617" d="M734.023,441.81a.059.059,0,0,0-.047-.018c-.033,0-.079,0-.132,0s-.139,0-.207,0c-.107,0-.246-.013-.314-.023l.02-.542.42.015h.03a.166.166,0,0,0,.18-.146.057.057,0,0,0-.01-.049.054.054,0,0,0-.044-.023l-.568-.021.019-.492.369.013.082,0a.229.229,0,0,0,.113-.02l.011-.005a.2.2,0,0,0,.072-.132.061.061,0,0,0-.057-.061l-.671-.024h-.011a.7.7,0,0,0-.127.035.06.06,0,0,0-.039.056v.046c0,.077,0,.172-.006.271l-.043,1.174.011.036.031.045.031.022a2.6,2.6,0,0,0,.468.046c.073,0,.129,0,.174,0s.086,0,.109,0a.205.205,0,0,0,.152-.137.057.057,0,0,0-.012-.061Z" transform="translate(-721.5 -417.422)" fill="#cac80e"/>
        <path id="패스_8618" data-name="패스 8618" d="M742.628,439.719a.06.06,0,0,0-.029-.04l-.022-.013a.06.06,0,0,0-.065,0c-.085.066-.241.171-.447.3l-.026.035-.028.113a.055.055,0,0,0,.024.062l.006,0a.058.058,0,0,0,.061,0c.089-.05.22-.129.325-.2.14.677.234,1.149.26,1.275a.057.057,0,0,0,.026.038.056.056,0,0,0,.032.01h.011a.629.629,0,0,0,.1-.032.113.113,0,0,0,.075-.1.135.135,0,0,0-.005-.037C742.884,440.939,742.66,439.886,742.628,439.719Z" transform="translate(-727.795 -416.983)" fill="#cac80e"/>
        <path id="패스_8619" data-name="패스 8619" d="M747.444,438.283a.526.526,0,0,0-.182.034.517.517,0,0,0-.348.5.573.573,0,0,0,.034.2.474.474,0,0,0,.436.334.5.5,0,0,0,.177-.034.4.4,0,0,0,.223-.179.148.148,0,0,0,.013-.062.2.2,0,0,0-.018-.082.058.058,0,0,0-.043-.032.058.058,0,0,0-.052.018.442.442,0,0,1-.157.11.311.311,0,0,1-.1.02c-.094,0-.173-.048-.232-.2a.4.4,0,0,1-.026-.139.24.24,0,0,1,.157-.242.233.233,0,0,1,.079-.015c.127,0,.266.13.349.359a1,1,0,0,1,.068.352.768.768,0,0,1-.053.284.927.927,0,0,1-.363.4.056.056,0,0,0-.029.051v.009l.016.039a.177.177,0,0,0,.086.049l.024,0a.211.211,0,0,0,.066-.013.934.934,0,0,0,.412-.445,1.01,1.01,0,0,0,.1-.427,1.156,1.156,0,0,0-.072-.388A.659.659,0,0,0,747.444,438.283Z" transform="translate(-731.247 -416.014)" fill="#cac80e"/>
        <path id="패스_8620" data-name="패스 8620" d="M752.363,436.075a.5.5,0,0,0-.242.066.511.511,0,0,0-.278.462.594.594,0,0,0,.069.275.459.459,0,0,0,.65.209.405.405,0,0,0,.2-.21.2.2,0,0,0,0-.039.177.177,0,0,0-.031-.1.057.057,0,0,0-.1,0,.472.472,0,0,1-.139.132.3.3,0,0,1-.134.036c-.08,0-.157-.041-.227-.169a.376.376,0,0,1-.049-.182.232.232,0,0,1,.124-.215.221.221,0,0,1,.107-.028c.119,0,.263.109.368.307a.953.953,0,0,1,.127.449.767.767,0,0,1-.021.177.906.906,0,0,1-.3.447.06.06,0,0,0-.021.055v.009l.022.036a.176.176,0,0,0,.093.037l.007,0v0h0a.189.189,0,0,0,.08-.024.94.94,0,0,0,.345-.5,1.029,1.029,0,0,0,.043-.294,1.086,1.086,0,0,0-.137-.517A.693.693,0,0,0,752.363,436.075Z" transform="translate(-734.716 -414.461)" fill="#cac80e"/>
        <path id="패스_8621" data-name="패스 8621" d="M756.916,433.182a.5.5,0,0,0-.294.1.508.508,0,0,0-.214.417.576.576,0,0,0,.114.342.5.5,0,0,0,.391.214.476.476,0,0,0,.282-.1.4.4,0,0,0,.163-.237.105.105,0,0,0,0-.017.183.183,0,0,0-.05-.119.055.055,0,0,0-.05-.018.06.06,0,0,0-.044.032.436.436,0,0,1-.118.149.266.266,0,0,1-.156.058.276.276,0,0,1-.218-.137.362.362,0,0,1-.079-.215.223.223,0,0,1,.1-.187.206.206,0,0,1,.133-.045.523.523,0,0,1,.375.252.875.875,0,0,1,.2.536.579.579,0,0,1,0,.068.916.916,0,0,1-.233.485.056.056,0,0,0-.012.058l0,.008.027.032a.171.171,0,0,0,.084.023h.009a.168.168,0,0,0,.085-.037.937.937,0,0,0,.269-.544,1.144,1.144,0,0,0,.01-.153,1.05,1.05,0,0,0-.222-.635A.733.733,0,0,0,756.916,433.182Z" transform="translate(-737.928 -412.425)" fill="#cac80e"/>
      </g>
      <g id="그룹_4882" data-name="그룹 4882" transform="translate(4.683 4.676)">
        <path id="패스_8622" data-name="패스 8622" d="M748.391,382.338c.05.022.127-.027.107.088-.075.348-.322.592-.309.972l.083.033a3.907,3.907,0,0,0-.107.88,3.552,3.552,0,0,0,.661,1.555c.018-.03.04-.052.078-.012a6.459,6.459,0,0,0,.576.665l.121.081a.1.1,0,0,0,.083-.021c.11.1.215.166.309.241a3.419,3.419,0,0,0,3.487-.26,8.948,8.948,0,0,0-.664-2.262.98.98,0,0,1-.435.486c-.04.127-.595.354-1.221-.058a1.16,1.16,0,0,1-.382-1.374l.015-.047a3.074,3.074,0,0,1,.507-.743,1.491,1.491,0,0,1,.257-.316l-.1-.115-.085-.032.046-.012c-.03-.036-.062-.073-.094-.108-.061-.07-.122-.139-.186-.2-.032-.036-.067-.071-.1-.106a8.854,8.854,0,0,0-1.1-.961A2.9,2.9,0,0,0,748.391,382.338Z" transform="translate(-735.582 -378.921)" fill="#cac80e"/>
        <path id="패스_8623" data-name="패스 8623" d="M732.524,422.162l-.06-.146a2.419,2.419,0,0,1-.223-.435,3.437,3.437,0,0,0-4.272-1.492,8.447,8.447,0,0,0-.833.533c-1.3,1.324-1.534,2.4-1.431,2.884.292.083.019.162.406.028-.032.212.249.054.361.059.155.012.326-.043.321-.071.08-.038.146-.358.248-.232.039.112.172.112.227.14.108.027.134-.061.245-.026-.105-.349-.092-.424.194-.843a1.416,1.416,0,0,1,1.117-.523,1.181,1.181,0,0,1,1.2.727c.21.428-.105,1.2-.467,1.684a8.951,8.951,0,0,0,3.114-.86,3.463,3.463,0,0,0,.055-.447C732.687,423.157,732.615,422.512,732.524,422.162Z" transform="translate(-719.76 -406.439)" fill="#cac80e"/>
        <path id="패스_8624" data-name="패스 8624" d="M711.006,415.231a1.2,1.2,0,0,1,.033-.35l-.009-.054a.139.139,0,0,0-.064-.027.6.6,0,0,1,.036-.146c-.236-.33.056-.918.752-1.4a3.269,3.269,0,0,1,.768-.322c1.129,0,1.15.6,1.366.638-.023-.343.284.262.275-.053a.514.514,0,0,0,.454-.073c.171-.173.074-.374.229-.217.224.281.524-.124.614-.034.123.145.2,0,.316.138a2.9,2.9,0,0,0-2.7-2.24,5.025,5.025,0,0,0-2.789.687,8.544,8.544,0,0,0-.859.768c-.092.113-.39.576-.568.867a9.026,9.026,0,0,0,2.306,2.874c-.033-.356-.064-.884-.085-1.042C711.048,415.253,711.019,415.256,711.006,415.231Z" transform="translate(-707.921 -400.299)" fill="#cac80e"/>
        <path id="패스_8625" data-name="패스 8625" d="M706.193,390.9c.274.274.539.5.625.416.274.282.7.338,1.03.589.154-.213,1.049.144,1.034-.2.2.108.523.214.559.137a1.755,1.755,0,0,1,.6-.57c.1-.032.322-.046.348-.1.025-.093-.24-.063-.207-.156-.423.335-2.219-.624-2.548-1.987a2.508,2.508,0,0,1-.169-1.7,2.543,2.543,0,0,1,1.405-1.187l.053-.021a4.259,4.259,0,0,1,.941-.188,1.526,1.526,0,0,1,.393-.03,1.422,1.422,0,0,0-.135-.135,1.706,1.706,0,0,0,.342.107c.331.1.247-.042.177-.212-.073-.09.22.037.07-.079.133.051.056-.015.18.052.005-.073.082-.049.16-.1a1.769,1.769,0,0,1,.481.178l.124.029c-.06-.047,0-.02,0-.02l-.01-.046c-.045-.046-.007-.024-.007-.024a.661.661,0,0,0-.063-.137,1.573,1.573,0,0,0-.4-.4,6.381,6.381,0,0,0-3.135-.645,8.978,8.978,0,0,0-2.346,5.251A6.165,6.165,0,0,0,706.193,390.9Z" transform="translate(-705.69 -381.563)" fill="#cac80e"/>
        <path id="패스_8626" data-name="패스 8626" d="M725.339,378.49a9.716,9.716,0,0,1-1.059,2.475l-.037.073c-.261.421-.59.9-.794,1.258-.082.177-.161.366-.259.545.1-.025.186-.053.265-.075-.143.141-.305.256-.331.347-.269.345-.107.407.147.434.089.09.19.122.068.209.035.074.129.074.005.163-.047.376-.1.265-.047.376a.565.565,0,0,1-.206.273l.031.012.069.016c.069-.027.036.006.036.006a1.246,1.246,0,0,0,.2.006,2.17,2.17,0,0,0,.6-.185,7.465,7.465,0,0,0,2.064-2.254c-.039-.025-.1,0-.08-.084.091-.24.327-.348.4-.6l-.058-.049c.122-.16.239-.328.361-.5.1-.248.192-.5.274-.745a2.529,2.529,0,0,1,.509-.321v-.01a.7.7,0,0,1,.129.154,1.9,1.9,0,0,1,.517,1.013,6.409,6.409,0,0,1,.195,1.686l.005.047c-.005.287.091.678.1,1,.042.092.058.4.1.492h0s.012.028.033.069h0a2.823,2.823,0,0,1,.112.312l.021.069a9.123,9.123,0,0,0,1.781-1.439c.009-.2.014-.379.014-.537-.044,0-.09.032-.111-.015-.047-.149.088-.476.036-.628l-.074-.005c.021-.119.055-.244.074-.373a5.207,5.207,0,0,0-.147-.679c-.026.011-.049.017-.063,0a2.225,2.225,0,0,1-.059-.363l-.025-.057a.1.1,0,0,0-.063-.009c-.01-.06-.014-.117-.023-.169a4.428,4.428,0,0,0-1.432-1.761,3.211,3.211,0,0,0-.537-.173,2.077,2.077,0,0,0-.7-.152,23.11,23.11,0,0,0,.156-2.784,7.531,7.531,0,0,1,.015-.851c-.237-.018-.476-.03-.717-.03a8.968,8.968,0,0,0-.919.047,11.754,11.754,0,0,1-.122,1.338A11.33,11.33,0,0,1,725.339,378.49Z" transform="translate(-717.862 -374.675)" fill="#cac80e"/>
        <path id="패스_8627" data-name="패스 8627" d="M750.647,410.913a1.721,1.721,0,0,1-.176-.11,2.594,2.594,0,0,1-1.121-1.5,1.843,1.843,0,0,1,.754-1.466l.036-.035a6.165,6.165,0,0,1,.711-.4.918.918,0,0,1,.264-.162,1.231,1.231,0,0,0-.16-.147c.125.016.243.069.293.035.269.026.168-.137.039-.353-.1-.1.112-.073-.056-.191.14.038.141,0,.248.049.027.02.085-.015.084-.026.04.01.027.019.07-.064.009-.017.107-.032.039-.065.119.09.132-.017.132-.017-.057-.053.122-.04.122-.04-.027-.054.107-.041.062-.1a1.456,1.456,0,0,0-.462-.369,3.459,3.459,0,0,0-3.185-.087c.04.044-.408.261-.549.467l.063.075a4.369,4.369,0,0,0-.54.352,3.237,3.237,0,0,0-.546,1.108,4.681,4.681,0,0,1-.11.748l0,.128a.132.132,0,0,0,.078.06,3.035,3.035,0,0,0-.034.356,3.6,3.6,0,0,0,1.155,2.1,6.041,6.041,0,0,0,1.531.982A8.99,8.99,0,0,0,750.647,410.913Z" transform="translate(-734.523 -396.38)" fill="#cac80e"/>
      </g>
    </g>
  </g>
</svg>
