<svg xmlns="http://www.w3.org/2000/svg" width="70" height="70" viewBox="0 0 70 70">
  <g id="그룹_8428" data-name="그룹 8428" transform="translate(-108 -822)">
    <rect id="사각형_4301" data-name="사각형 4301" width="70" height="70" transform="translate(108 822)" fill="#f6f6f6"/>
    <g id="그룹_8238" data-name="그룹 8238" transform="translate(-455 -591)">
      <g id="그룹_8232" data-name="그룹 8232" transform="translate(584.032 1430.182)">
        <g id="Group_6363" data-name="Group 6363" transform="translate(0.139 0)">
          <g id="Rectangle_4289" data-name="Rectangle 4289">
            <path id="패스_9381" data-name="패스 9381" d="M876.359,1021.318v-26.75a5.015,5.015,0,0,1,5.016-5.016h17.833a5.016,5.016,0,0,1,5.016,5.016v31.208a.558.558,0,0,1-.557.557H881.375A5.015,5.015,0,0,1,876.359,1021.318Z" transform="translate(-876.359 -989.552)" fill="#fff" stroke="#222" stroke-width="1"/>
          </g>
        </g>
        <g id="그룹_7986" data-name="그룹 7986">
          <path id="Rectangle_4291" data-name="Rectangle 4291" d="M880.692,990.052h1.115v35.667h-1.115a4.459,4.459,0,0,1-4.458-4.458V994.51A4.459,4.459,0,0,1,880.692,990.052Z" transform="translate(-876.234 -989.495)" fill="#e4efac"/>
          <g id="Group_6363-2" data-name="Group 6363" transform="translate(0.279 0)">
            <g id="Rectangle_4289-2" data-name="Rectangle 4289">
              <path id="패스_9382" data-name="패스 9382" d="M876.484,1021.318v-26.75a5.015,5.015,0,0,1,5.016-5.016h17.833a5.016,5.016,0,0,1,5.016,5.016v31.208a.558.558,0,0,1-.557.557H881.5A5.015,5.015,0,0,1,876.484,1021.318Z" transform="translate(-876.484 -989.552)" fill="none" stroke="#222" stroke-width="1"/>
            </g>
          </g>
          <path id="패스_9383" data-name="패스 9383" d="M900.169,1015.052H880.664a4.18,4.18,0,0,0,0,8.359h23.685v-8.359Z" transform="translate(-876.205 -986.63)" fill="#fff" stroke="#222" stroke-width="1"/>
          <line id="선_132" data-name="선 132" y2="28.422" transform="translate(5.294)" fill="#fff" stroke="#222" stroke-width="1"/>
        </g>
      </g>
      <g id="그룹_8212" data-name="그룹 8212" transform="translate(573 1423)">
        <rect id="사각형_5223" data-name="사각형 5223" width="50" height="50" fill="none" opacity="0.5"/>
        <path id="패스_9447" data-name="패스 9447" d="M872.572,533.607a3.274,3.274,0,0,0-3.25-3.3,3.2,3.2,0,0,0-.793.1,3.233,3.233,0,0,0-6,0,3.2,3.2,0,0,0-.793-.1,3.275,3.275,0,0,0-3.251,3.3,2.967,2.967,0,0,0,2.113,2.853v5.006h9.86v-5.006A2.967,2.967,0,0,0,872.572,533.607Z" transform="translate(-837.635 -513.265)" fill="#e4efac" stroke="#222" stroke-linecap="round" stroke-miterlimit="10" stroke-width="1"/>
      </g>
    </g>
  </g>
</svg>
