<svg xmlns="http://www.w3.org/2000/svg" width="70" height="70" viewBox="0 0 70 70">
  <g id="그룹_8435" data-name="그룹 8435" transform="translate(-108 -573)">
    <g id="그룹_8432" data-name="그룹 8432">
      <rect id="사각형_4301" data-name="사각형 4301" width="70" height="70" transform="translate(108 573)" fill="#f6f6f6"/>
      <rect id="사각형_4296" data-name="사각형 4296" width="50" height="50" transform="translate(118 583)" fill="#ededed" opacity="0"/>
    </g>
    <g id="그룹_8343" data-name="그룹 8343" transform="translate(-693.25 493.75)">
      <g id="그룹_8345" data-name="그룹 8345" transform="translate(818.25 96.25)">
        <path id="패스_5" data-name="패스 5" d="M836.764,98.172l4.484-2.3a1.143,1.143,0,0,1,1.545.527l2.339,4.622a1.175,1.175,0,0,0,.831.632l4.916.9a1.219,1.219,0,0,1,.955,1.378l-.7,5.18a1.259,1.259,0,0,0,.317,1.023l3.47,3.76a1.267,1.267,0,0,1,0,1.7l-3.47,3.76a1.26,1.26,0,0,0-.317,1.023l.7,5.18a1.219,1.219,0,0,1-.955,1.378l-4.916.9a1.177,1.177,0,0,0-.831.633l-2.339,4.621a1.142,1.142,0,0,1-1.545.527l-4.484-2.3a1.121,1.121,0,0,0-1.027,0l-4.484,2.3a1.142,1.142,0,0,1-1.545-.527l-2.339-4.621a1.177,1.177,0,0,0-.831-.633l-4.916-.9a1.219,1.219,0,0,1-.955-1.378l.7-5.18a1.26,1.26,0,0,0-.317-1.023l-3.47-3.76a1.267,1.267,0,0,1,0-1.7l3.47-3.76a1.258,1.258,0,0,0,.317-1.023l-.7-5.18a1.219,1.219,0,0,1,.955-1.378l4.916-.9a1.175,1.175,0,0,0,.831-.632l2.339-4.622a1.143,1.143,0,0,1,1.545-.527l4.484,2.3A1.127,1.127,0,0,0,836.764,98.172Z" transform="translate(-818.25 -96.749)" fill="#e4efac" stroke="#222" stroke-linecap="round" stroke-linejoin="round" stroke-width="1"/>
        <g id="그룹_8344" data-name="그룹 8344" transform="translate(5.814 5.815)">
          <circle id="타원_8" data-name="타원 8" cx="13" cy="13" r="13" transform="translate(-0.814 -0.815)" fill="#fff" stroke="#000" stroke-miterlimit="10" stroke-width="1"/>
          <path id="패스_9515" data-name="패스 9515" d="M-3.6,0H-4.918L-7.484-4.21V0H-8.8V-6.4h1.318L-4.913-2.18V-6.4H-3.6ZM1.132-2.773H-1.4v1.714H1.571V0H-2.718V-6.4h4.28v1.068H-1.4v1.525H1.132Zm5.926.927L7.919-6.4H9.233L7.814,0H6.487L5.445-4.28,4.4,0H3.076L1.657-6.4H2.971l.866,4.544L4.891-6.4H6.008Z" transform="translate(12.186 15.185)"/>
        </g>
      </g>
    </g>
  </g>
</svg>
