<svg width="70" height="70" viewBox="0 0 70 70" fill="none" xmlns="http://www.w3.org/2000/svg">
<g clip-path="url(#clip0_130_1140)">
<rect width="70" height="70" fill="#F6F6F6"/>
<g clip-path="url(#clip1_130_1140)">
<path d="M8.19438 21.2736C8.63353 21.4843 9.06667 21.7011 9.49379 21.9299C9.59605 21.9841 9.69231 22.0804 9.74645 22.1828C9.98106 22.6223 10.1976 23.0739 10.4202 23.5195C10.5405 23.7603 10.733 23.8928 10.9977 23.8988C11.2865 23.8988 11.485 23.7603 11.6053 23.5074C11.8279 23.0679 12.0384 22.6223 12.2731 22.1888C12.3332 22.0804 12.4355 21.9781 12.5438 21.9179C12.9649 21.6891 13.392 21.4783 13.8251 21.2736C14.0898 21.1472 14.2522 20.9424 14.2462 20.6474C14.2462 20.3584 14.0838 20.1657 13.8251 20.0393C13.404 19.8345 12.9829 19.6118 12.5558 19.4131C12.4054 19.3408 12.3152 19.2445 12.243 19.0939C12.0384 18.6664 11.8219 18.251 11.6113 17.8235C11.503 17.5766 11.3045 17.4261 11.0158 17.4261C10.727 17.4261 10.5345 17.5887 10.4082 17.8416C10.1916 18.2871 9.97505 18.7267 9.74645 19.1602C9.69832 19.2505 9.60809 19.3408 9.51785 19.389C9.0787 19.6178 8.63955 19.8345 8.19438 20.0513C7.93571 20.1778 7.7793 20.3704 7.7793 20.6594C7.7793 20.9485 7.93571 21.1472 8.19438 21.2736ZM11.0218 19.5455C11.2203 20.1115 11.5692 20.4788 12.1768 20.6354C11.8941 20.7979 11.6294 20.8943 11.4489 21.0809C11.2684 21.2616 11.1662 21.5265 10.9977 21.8095C10.8233 21.2254 10.4744 20.8461 9.89684 20.6715C10.4563 20.4728 10.8353 20.1175 11.0218 19.5455Z" fill="#222222"/>
<path d="M10.9734 22.4842C11.2441 22.0326 11.4005 21.6111 11.6893 21.3221C11.984 21.0331 12.4051 20.8766 12.8563 20.6177C11.8878 20.3708 11.3283 19.7747 11.0155 18.8776C10.7207 19.7928 10.1131 20.3527 9.2168 20.6779C10.1492 20.9548 10.7027 21.557 10.9734 22.4902V22.4842Z" fill="#E4EFAC"/>
</g>
<path d="M14.2073 16.0949C14.3929 16.0949 14.5784 16.0949 14.7825 16.0949C14.7825 16.3234 14.7825 16.5272 14.7825 16.731C14.7949 17.1386 15.0794 17.4289 15.4628 17.4227C15.8401 17.4165 16.1122 17.1324 16.1184 16.731C16.1184 16.5272 16.1184 16.3296 16.1184 16.101C16.3349 16.101 16.5142 16.101 16.6936 16.101C17.1389 16.101 17.4481 15.8293 17.4481 15.434C17.4481 15.0388 17.1451 14.767 16.6998 14.767C16.5081 14.767 16.3163 14.767 16.1184 14.767C16.1184 14.5447 16.1184 14.3532 16.1184 14.1679C16.1184 13.7418 15.8401 13.4392 15.4505 13.4392C15.0608 13.4392 14.7887 13.7418 14.7825 14.1679C14.7825 14.3594 14.7825 14.557 14.7825 14.767H14.2012C13.7559 14.767 13.459 15.0388 13.459 15.4402C13.459 15.8355 13.7559 16.101 14.2073 16.101V16.0949Z" fill="#222222"/>
<path d="M56.0211 45.9534H42.7363V26.7397C43.2991 26.7397 43.8372 26.7397 44.3567 26.7397C45.0185 26.7397 45.6555 26.7397 46.2616 26.7397C51.8403 26.7397 54.6234 26.9682 56.0521 29.0248C57.5426 31.1741 57.79 34.0274 57.79 42.7418C57.79 44.644 56.8561 45.9657 56.0211 45.9657V45.9534Z" fill="white" stroke="#222222" stroke-width="1.1" stroke-linecap="round" stroke-linejoin="round"/>
<path d="M43.2047 45.4987H17V22.7708C17 21.2268 18.0576 19.9669 19.3564 19.9669H40.8545C42.1533 19.9669 43.2109 21.2268 43.2109 22.7708V45.4987H43.2047Z" fill="#E6E5DA" stroke="#222222" stroke-width="1.1" stroke-linecap="round" stroke-linejoin="round"/>
<path d="M50.3163 50.4954C52.6937 50.4954 54.6209 48.5709 54.6209 46.1969C54.6209 43.8229 52.6937 41.8984 50.3163 41.8984C47.9389 41.8984 46.0117 43.8229 46.0117 46.1969C46.0117 48.5709 47.9389 50.4954 50.3163 50.4954Z" fill="white" stroke="#222222" stroke-width="1.1" stroke-linecap="round" stroke-linejoin="round"/>
<path d="M43.21 37H17V46H43.21V37Z" fill="white" stroke="#222222" stroke-width="1.1" stroke-linecap="round" stroke-linejoin="round"/>
<path d="M27.9022 50.4955C30.2796 50.4955 32.2068 48.5709 32.2068 46.1969C32.2068 43.8229 30.2796 41.8984 27.9022 41.8984C25.5249 41.8984 23.5977 43.8229 23.5977 46.1969C23.5977 48.5709 25.5249 50.4955 27.9022 50.4955Z" fill="white" stroke="#222222" stroke-width="1.1" stroke-linecap="round" stroke-linejoin="round"/>
<path d="M18.4214 46.6513L10.3887 46.5665V55.0122C10.3887 55.0122 10.5646 55.8423 11.3351 55.8423H25.5077C26.2782 55.8423 26.4541 55.0122 26.4541 55.0122V46.5665L18.4214 46.6513Z" fill="#E4EFAC" stroke="#222222" stroke-width="1.1" stroke-linecap="round" stroke-linejoin="round"/>
<path d="M16.8535 49.5473H19.978" stroke="#222222" stroke-width="1.1" stroke-linecap="round" stroke-linejoin="round"/>
<path d="M23.8392 42.2226H18.5306H18.3061H12.9975L10.3887 46.5606H18.3061H18.5306H26.4541L23.8392 42.2226Z" fill="#E4EFAC" stroke="#222222" stroke-width="1.1" stroke-linecap="round" stroke-linejoin="round"/>
<path d="M18.4219 42.2225V46.5604" stroke="#222222" stroke-width="1.1" stroke-linecap="round" stroke-linejoin="round"/>
<rect x="29.2109" y="19.4197" width="1.24595" height="7.97383" rx="0.622977" fill="#222222"/>
</g>
<defs>
<clipPath id="clip0_130_1140">
<rect width="70" height="70" fill="white"/>
</clipPath>
<clipPath id="clip1_130_1140">
<rect width="51.3333" height="43.8561" fill="white" transform="translate(7.27734 11.9444)"/>
</clipPath>
</defs>
</svg>
