<svg xmlns="http://www.w3.org/2000/svg" width="70" height="70" viewBox="0 0 70 70">
  <g id="그룹_8427" data-name="그룹 8427" transform="translate(-20 -573)">
    <rect id="사각형_4234" data-name="사각형 4234" width="70" height="70" transform="translate(20 573)" fill="#f6f6f6"/>
    <g id="그룹_8239" data-name="그룹 8239" transform="translate(20 573)">
      <g id="그룹_8329" data-name="그룹 8329" transform="translate(14 9.8)">
        <rect id="사각형_5224" data-name="사각형 5224" width="50" height="50" transform="translate(0 0.2)" fill="none" opacity="0.5"/>
        <g id="그룹_8203" data-name="그룹 8203" transform="translate(4.2 4.51)">
          <path id="사각형_5124" data-name="사각형 5124" d="M3,0H35a0,0,0,0,1,0,0V20a3,3,0,0,1-3,3H3a3,3,0,0,1-3-3V3A3,3,0,0,1,3,0Z" transform="translate(-0.2 12.69)" fill="#fff" stroke="#222" stroke-linecap="round" stroke-linejoin="round" stroke-width="1"/>
          <g id="그룹_8077" data-name="그룹 8077" transform="translate(6.307 0)">
            <path id="패스_9400" data-name="패스 9400" d="M1340.769,1424.511l2.7,9.009-8.794-4.191a4.01,4.01,0,0,1-1.12-6.585l.012-.013A4.4,4.4,0,0,1,1340.769,1424.511Z" transform="translate(-1332.29 -1421.526)" fill="none" stroke="#222" stroke-linecap="round" stroke-linejoin="round" stroke-width="1"/>
            <path id="패스_9401" data-name="패스 9401" d="M1340.993,1424.511l-2.7,9.009,8.794-4.191a4.011,4.011,0,0,0,1.122-6.585l-.013-.013A4.4,4.4,0,0,0,1340.993,1424.511Z" transform="translate(-1326.813 -1421.526)" fill="none" stroke="#222" stroke-linecap="round" stroke-linejoin="round" stroke-width="1"/>
          </g>
          <line id="선_140" data-name="선 140" y2="23" transform="translate(17.8 12.69)" fill="none" stroke="#222" stroke-linecap="round" stroke-linejoin="round" stroke-width="1"/>
        </g>
        <g id="그룹_8208" data-name="그룹 8208" transform="translate(32.2 28)">
          <g id="그룹_8204" data-name="그룹 8204" transform="translate(0 0)">
            <ellipse id="타원_61" data-name="타원 61" cx="7.5" cy="7.5" rx="7.5" ry="7.5" transform="translate(-0.2 0.7)" fill="#e4efac" stroke="#222" stroke-linecap="round" stroke-linejoin="round" stroke-width="1"/>
          </g>
          <g id="그룹_8207" data-name="그룹 8207" transform="translate(4.2 4.2)">
            <g id="그룹_8205" data-name="그룹 8205" transform="translate(0 0)">
              <path id="패스_9449" data-name="패스 9449" d="M386.626,574.765l4.5-4.5" transform="translate(-385.238 -569.198)" fill="none" stroke="#222" stroke-linecap="round" stroke-linejoin="round" stroke-width="1"/>
              <circle id="타원_705" data-name="타원 705" cx="1.5" cy="1.5" r="1.5" transform="translate(4.6 4)" fill="#222"/>
              <circle id="타원_706" data-name="타원 706" cx="1.5" cy="1.5" r="1.5" transform="translate(-0.4 0)" fill="#222"/>
            </g>
          </g>
        </g>
      </g>
    </g>
  </g>
</svg>
