<svg xmlns="http://www.w3.org/2000/svg" width="70" height="70" viewBox="0 0 70 70">
  <g id="그룹_8429" data-name="그룹 8429" transform="translate(-197 -822)">
    <rect id="사각형_4302" data-name="사각형 4302" width="70" height="70" transform="translate(197 822)" fill="#f6f6f6"/>
    <g id="그룹_8380" data-name="그룹 8380" transform="translate(-840 -202)">
      <rect id="사각형_4184" data-name="사각형 4184" width="50" height="50" transform="translate(1047 1034)" fill="#ffbfbf" opacity="0"/>
      <g id="그룹_8379" data-name="그룹 8379" transform="translate(-3.745 78.984)">
        <g id="그룹_8378" data-name="그룹 8378" transform="translate(1053.724 974.779)">
          <g id="타원_743" data-name="타원 743" transform="translate(0.021 0.237)" fill="#fff" stroke="#1a1311" stroke-width="1">
            <ellipse cx="6.5" cy="6" rx="6.5" ry="6" stroke="none"/>
            <ellipse cx="6.5" cy="6" rx="6" ry="5.5" fill="none"/>
          </g>
          <g id="타원_744" data-name="타원 744" transform="translate(32.021 0.237)" fill="#fff" stroke="#1a1311" stroke-width="1">
            <ellipse cx="6.5" cy="6" rx="6.5" ry="6" stroke="none"/>
            <ellipse cx="6.5" cy="6" rx="6" ry="5.5" fill="none"/>
          </g>
        </g>
        <g id="사각형_5238" data-name="사각형 5238" transform="translate(1058.745 962.016)" fill="#fff" stroke="#1a1311" stroke-width="1">
          <path d="M17.5,0h0A17.5,17.5,0,0,1,35,17.5v5.861A12.639,12.639,0,0,1,22.361,36H12.639A12.639,12.639,0,0,1,0,23.361V17.5A17.5,17.5,0,0,1,17.5,0Z" stroke="none"/>
          <path d="M17.5.5h0a17,17,0,0,1,17,17v5.857A12.143,12.143,0,0,1,22.357,35.5H12.643A12.143,12.143,0,0,1,.5,23.357V17.5A17,17,0,0,1,17.5.5Z" fill="none"/>
        </g>
        <g id="타원_741" data-name="타원 741" transform="translate(1061.745 982.016)" fill="#e4efac" stroke="#e4efac" stroke-width="1">
          <ellipse cx="4" cy="2.5" rx="4" ry="2.5" stroke="none"/>
          <ellipse cx="4" cy="2.5" rx="3.5" ry="2" fill="none"/>
        </g>
        <g id="타원_742" data-name="타원 742" transform="translate(1082.745 982.016)" fill="#e4efac" stroke="#e4efac" stroke-width="1">
          <ellipse cx="4" cy="2.5" rx="4" ry="2.5" stroke="none"/>
          <ellipse cx="4" cy="2.5" rx="3.5" ry="2" fill="none"/>
        </g>
        <circle id="타원_739" data-name="타원 739" cx="1.5" cy="1.5" r="1.5" transform="translate(1068.745 977.016)" fill="#222"/>
        <circle id="타원_740" data-name="타원 740" cx="1.5" cy="1.5" r="1.5" transform="translate(1080.745 977.016)" fill="#222"/>
        <path id="패스_9508" data-name="패스 9508" d="M506.044,605.355s-5.162.865-5.6,3.807c-.372,2.475,3.845,3.181,5.57,3.382l.033,0a9.273,9.273,0,0,0,3.708-.4,1.822,1.822,0,0,0,.244-3.2c-.921-.578-2.463-.913-4.921.14" transform="translate(571.02 357.228)" fill="none" stroke="#1a1311" stroke-linecap="round" stroke-miterlimit="10" stroke-width="1"/>
        <path id="패스_9509" data-name="패스 9509" d="M1020-5038.5a6,6,0,0,0,3.056,1.2,5.471,5.471,0,0,0,2.952-1.2" transform="translate(53.931 6027.697)" fill="#fff" stroke="#1a1311" stroke-linecap="round" stroke-width="1"/>
      </g>
    </g>
  </g>
</svg>
